<svg width="162" height="161" viewBox="0 0 162 161" fill="none" xmlns="http://www.w3.org/2000/svg">
<path d="M154.601 80.1952C154.601 120.512 121.694 153.195 81.1006 153.195C40.5077 153.195 7.60059 120.512 7.60059 80.1952C7.60059 60.3047 15.6101 42.2723 28.6006 29.1058C41.941 15.5846 60.5344 7.19519 81.1006 7.19519C121.694 7.19519 154.601 39.8784 154.601 80.1952Z" stroke="#49C419" stroke-width="14"/>
<path d="M38.3003 57.1112V51.5291H48.2784V76.1952H41.9985V57.1112H38.3003Z" fill="#49C419"/>
<path d="M51.8176 63.6005C51.8176 67.4615 52.5968 70.52 54.1552 72.7761C55.7135 75.0322 58.2022 76.1603 61.6213 76.1603C65.0171 76.1603 67.4942 75.0322 69.0525 72.7761C70.6341 70.52 71.4249 67.4615 71.4249 63.6005C71.4249 59.7628 70.6341 56.7275 69.0525 54.4946C67.4942 52.2385 65.0171 51.1104 61.6213 51.1104C58.2022 51.1104 55.7135 52.2385 54.1552 54.4946C52.5968 56.7275 51.8176 59.7628 51.8176 63.6005ZM65.4939 63.6005C65.4939 65.8101 65.2264 67.5196 64.6915 68.7291C64.1798 69.9153 63.1564 70.5084 61.6213 70.5084C60.0629 70.5084 59.0163 69.9153 58.4813 68.7291C57.9464 67.5196 57.6789 65.8101 57.6789 63.6005C57.6789 61.4141 57.9464 59.7279 58.4813 58.5417C59.0163 57.3555 60.0629 56.7623 61.6213 56.7623C63.1564 56.7623 64.1798 57.3555 64.6915 58.5417C65.2264 59.7046 65.4939 61.3909 65.4939 63.6005Z" fill="#49C419"/>
<path d="M74.2702 63.6005C74.2702 67.4615 75.0494 70.52 76.6078 72.7761C78.1661 75.0322 80.6548 76.1603 84.0739 76.1603C87.4697 76.1603 89.9467 75.0322 91.5051 72.7761C93.0867 70.52 93.8775 67.4615 93.8775 63.6005C93.8775 59.7628 93.0867 56.7275 91.5051 54.4946C89.9467 52.2385 87.4697 51.1104 84.0739 51.1104C80.6548 51.1104 78.1661 52.2385 76.6078 54.4946C75.0494 56.7275 74.2702 59.7628 74.2702 63.6005ZM87.9465 63.6005C87.9465 65.8101 87.679 67.5196 87.144 68.7291C86.6324 69.9153 85.609 70.5084 84.0739 70.5084C82.5155 70.5084 81.4689 69.9153 80.9339 68.7291C80.399 67.5196 80.1315 65.8101 80.1315 63.6005C80.1315 61.4141 80.399 59.7279 80.9339 58.5417C81.4689 57.3555 82.5155 56.7623 84.0739 56.7623C85.609 56.7623 86.6324 57.3555 87.144 58.5417C87.679 59.7046 87.9465 61.3909 87.9465 63.6005Z" fill="#49C419"/>
<path d="M101.991 51.1104C103.689 51.1104 105.073 51.6221 106.143 52.6455C107.236 53.6689 107.782 55.111 107.782 56.9717C107.782 58.8324 107.236 60.2744 106.143 61.2978C105.073 62.3212 103.689 62.8329 101.991 62.8329C100.247 62.8329 98.8278 62.3212 97.7346 61.2978C96.6647 60.2744 96.1297 58.8324 96.1297 56.9717C96.1297 55.111 96.6647 53.6689 97.7346 52.6455C98.8278 51.6221 100.247 51.1104 101.991 51.1104ZM118.912 51.4593L105.445 76.1952H99.6883L113.155 51.4593H118.912ZM100.107 56.9717C100.107 57.6927 100.27 58.2625 100.595 58.6812C100.921 59.0766 101.363 59.2743 101.921 59.2743C102.503 59.2743 102.968 59.0766 103.317 58.6812C103.666 58.2625 103.84 57.6927 103.84 56.9717C103.84 56.2507 103.666 55.6924 103.317 55.297C102.968 54.8784 102.503 54.669 101.921 54.669C101.363 54.669 100.921 54.8784 100.595 55.297C100.27 55.6924 100.107 56.2507 100.107 56.9717ZM116.644 64.7867C118.365 64.7867 119.761 65.2984 120.831 66.3218C121.901 67.3452 122.436 68.7872 122.436 70.6479C122.436 72.5086 121.901 73.9623 120.831 75.009C119.761 76.0324 118.365 76.5441 116.644 76.5441C114.946 76.5441 113.551 76.0324 112.457 75.009C111.388 73.9623 110.853 72.5086 110.853 70.6479C110.853 68.7872 111.388 67.3452 112.457 66.3218C113.551 65.2984 114.946 64.7867 116.644 64.7867ZM114.795 70.6479C114.795 71.3922 114.958 71.9737 115.283 72.3924C115.609 72.7878 116.063 72.9855 116.644 72.9855C117.202 72.9855 117.644 72.7878 117.97 72.3924C118.319 71.9737 118.493 71.3922 118.493 70.6479C118.493 69.9269 118.319 69.3687 117.97 68.9733C117.644 68.5546 117.202 68.3453 116.644 68.3453C116.063 68.3453 115.609 68.5546 115.283 68.9733C114.958 69.3687 114.795 69.9269 114.795 70.6479Z" fill="#49C419"/>
<path d="M56.2844 92.5509C58.0673 92.5509 59.4694 93.1048 60.4907 94.2127C61.512 95.3032 62.0226 96.8265 62.0226 98.7825V107.195H57.6086V99.3018C57.6086 98.3844 57.3576 97.6747 56.8556 97.1727C56.3709 96.6534 55.7045 96.3937 54.8563 96.3937C53.9735 96.3937 53.2724 96.6707 52.7531 97.2246C52.2511 97.7612 52.0001 98.5229 52.0001 99.5095V107.195H47.5601V99.3018C47.5601 98.3844 47.3178 97.6747 46.8331 97.1727C46.3484 96.6534 45.682 96.3937 44.8338 96.3937C43.951 96.3937 43.2499 96.6621 42.7306 97.1987C42.2113 97.7353 41.9517 98.5056 41.9517 99.5095V107.195H37.5117V92.7067H41.9517V95.1734C42.3325 94.3598 42.9124 93.7193 43.6913 93.252C44.4876 92.7846 45.4137 92.5509 46.4696 92.5509C47.5774 92.5509 48.5554 92.8106 49.4036 93.3299C50.2518 93.8319 50.8923 94.5589 51.325 95.5109C51.827 94.6108 52.5108 93.8924 53.3763 93.3558C54.2591 92.8192 55.2285 92.5509 56.2844 92.5509Z" fill="#2A282B"/>
<path d="M70.4773 92.525C71.5851 92.525 72.5372 92.776 73.3334 93.2779C74.1297 93.7799 74.7182 94.4637 75.0991 95.3292V92.7067H79.5131V107.195H75.0991V104.573C74.7182 105.438 74.1297 106.122 73.3334 106.624C72.5372 107.126 71.5851 107.377 70.4773 107.377C69.2829 107.377 68.2097 107.083 67.2576 106.494C66.3229 105.888 65.5786 105.023 65.0246 103.898C64.488 102.772 64.2197 101.457 64.2197 99.951C64.2197 98.4277 64.488 97.1121 65.0246 96.0043C65.5786 94.8791 66.3229 94.0223 67.2576 93.4337C68.2097 92.8279 69.2829 92.525 70.4773 92.525ZM71.9054 96.4197C70.9533 96.4197 70.183 96.7313 69.5945 97.3545C69.0233 97.9776 68.7376 98.8431 68.7376 99.951C68.7376 101.059 69.0233 101.924 69.5945 102.547C70.183 103.171 70.9533 103.482 71.9054 103.482C72.8401 103.482 73.6018 103.162 74.1903 102.521C74.7961 101.881 75.0991 101.024 75.0991 99.951C75.0991 98.8604 74.7961 98.0036 74.1903 97.3804C73.6018 96.7399 72.8401 96.4197 71.9054 96.4197Z" fill="#2A282B"/>
<path d="M90.775 103.378V107.195H88.7757C87.0794 107.195 85.7551 106.78 84.8031 105.949C83.8683 105.101 83.401 103.707 83.401 101.769V96.4457H81.4536V92.7067H83.401V89.1495H87.841V92.7067H90.7491V96.4457H87.841V101.846C87.841 102.418 87.9535 102.816 88.1785 103.041C88.4209 103.266 88.819 103.378 89.3729 103.378H90.775Z" fill="#2A282B"/>
<path d="M99.8137 92.525C101.683 92.525 103.25 93.0443 104.513 94.0829C105.777 95.1041 106.573 96.5149 106.902 98.3152H102.202C102.064 97.692 101.778 97.2073 101.346 96.8611C100.913 96.5149 100.368 96.3418 99.7099 96.3418C98.9309 96.3418 98.2904 96.6534 97.7884 97.2766C97.2865 97.8824 97.0355 98.7739 97.0355 99.951C97.0355 101.128 97.2865 102.028 97.7884 102.651C98.2904 103.257 98.9309 103.56 99.7099 103.56C100.368 103.56 100.913 103.387 101.346 103.041C101.778 102.695 102.064 102.21 102.202 101.587H106.902C106.573 103.387 105.777 104.806 104.513 105.845C103.25 106.866 101.683 107.377 99.8137 107.377C98.3943 107.377 97.1307 107.083 96.0228 106.494C94.9323 105.888 94.0754 105.023 93.4523 103.898C92.8291 102.772 92.5175 101.457 92.5175 99.951C92.5175 98.4277 92.8205 97.1121 93.4263 96.0043C94.0495 94.8791 94.915 94.0223 96.0228 93.4337C97.1307 92.8279 98.3943 92.525 99.8137 92.525Z" fill="#2A282B"/>
<path d="M118.411 92.5509C120.073 92.5509 121.389 93.1048 122.358 94.2127C123.345 95.3205 123.838 96.8438 123.838 98.7825V107.195H119.398V99.3018C119.398 98.3325 119.138 97.5795 118.619 97.0429C118.117 96.4889 117.442 96.212 116.594 96.212C115.694 96.212 114.975 96.4976 114.439 97.0688C113.919 97.6401 113.66 98.4536 113.66 99.5095V107.195H109.22V87.9811H113.66V95.3551C114.075 94.4896 114.69 93.8059 115.503 93.3039C116.334 92.8019 117.304 92.5509 118.411 92.5509Z" fill="#2A282B"/>
</svg>
