<svg width="269" height="269" viewBox="0 0 269 269" fill="none" xmlns="http://www.w3.org/2000/svg">
<g opacity="0.5">
<rect x="172.545" y="6.6012" width="34" height="8" rx="4" transform="rotate(105 172.545 6.6012)" fill="#49C419"/>
<rect x="111.982" y="232.628" width="34" height="8" rx="4" transform="rotate(105 111.982 232.628)" fill="#49C419"/>
</g>
<g opacity="0.5">
<rect x="232.017" y="43.2421" width="34" height="8" rx="4" transform="rotate(135 232.017 43.2421)" fill="#49C419"/>
<rect x="66.5538" y="208.705" width="34" height="8" rx="4" transform="rotate(135 66.5538 208.705)" fill="#49C419"/>
</g>
<g opacity="0.5">
<rect x="264.562" y="103.652" width="34" height="8" rx="4" transform="rotate(165 264.562 103.652)" fill="#49C419"/>
<rect x="38.5356" y="164.216" width="34" height="8" rx="4" transform="rotate(165 38.5356 164.216)" fill="#49C419"/>
</g>
<g opacity="0.5">
<rect x="262.399" y="173.545" width="34" height="8" rx="4" transform="rotate(-165 262.399 173.545)" fill="#49C419"/>
<rect x="36.3721" y="112.982" width="34" height="8" rx="4" transform="rotate(-165 36.3721 112.982)" fill="#49C419"/>
</g>
<g opacity="0.5">
<rect x="226.017" y="232.051" width="34" height="8" rx="4" transform="rotate(-135 226.017 232.051)" fill="#49C419"/>
<rect x="60.5538" y="66.5879" width="34" height="8" rx="4" transform="rotate(-135 60.5538 66.5879)" fill="#49C419"/>
</g>
<g opacity="0.5">
<rect x="165.348" y="265.562" width="34" height="8" rx="4" transform="rotate(-105 165.348 265.562)" fill="#49C419"/>
<rect x="104.784" y="39.5356" width="34" height="8" rx="4" transform="rotate(-105 104.784 39.5356)" fill="#49C419"/>
</g>
<g opacity="0.8">
<rect x="197.811" y="30.6206" width="22" height="8" rx="4" transform="rotate(120 197.811 30.6206)" fill="#49C419"/>
<rect x="86.8112" y="222.878" width="22" height="8" rx="4" transform="rotate(120 86.8112 222.878)" fill="#49C419"/>
</g>
<g opacity="0.8">
<rect x="241.837" y="77.0789" width="22" height="8" rx="4" transform="rotate(150 241.837 77.0789)" fill="#49C419"/>
<rect x="49.5795" y="188.079" width="22" height="8" rx="4" transform="rotate(150 49.5795 188.079)" fill="#49C419"/>
</g>
<g opacity="0.8">
<rect x="256.698" y="138.717" width="22" height="8" rx="4" transform="rotate(-180 256.698 138.717)" fill="#49C419"/>
<rect x="34.6984" y="138.717" width="22" height="8" rx="4" transform="rotate(-180 34.6984 138.717)" fill="#49C419"/>
</g>
<g opacity="0.8">
<rect x="190.955" y="242.578" width="22" height="8" rx="4" transform="rotate(-120 190.955 242.578)" fill="#49C419"/>
<rect x="79.9553" y="50.3208" width="22" height="8" rx="4" transform="rotate(-120 79.9553 50.3208)" fill="#49C419"/>
</g>
<g opacity="0.8">
<rect x="238.379" y="198.811" width="22" height="8" rx="4" transform="rotate(-150 238.379 198.811)" fill="#49C419"/>
<rect x="46.1218" y="87.8113" width="22" height="8" rx="4" transform="rotate(-150 46.1218 87.8113)" fill="#49C419"/>
</g>
<g opacity="0.8">
<rect x="129.576" y="256.474" width="22" height="8" rx="4" transform="rotate(-90 129.576 256.474)" fill="#49C419"/>
<rect x="129.576" y="34.4736" width="22" height="8" rx="4" transform="rotate(-90 129.576 34.4736)" fill="#49C419"/>
</g>
</svg>
